<svg height="512" viewBox="0 0 24 24" width="512" xmlns="http://www.w3.org/2000/svg"><path d="M12 16a.8.8 0 01-.8-.8v-.4c0-1 .6-1.9 1.4-2.3.6-.2 1-1 .8-1.9 0-.5-.5-1-1-1-.5-.2-1 0-1.3.2-.4.3-.6.8-.6 1.3A.8.8 0 119 11c0-1 .5-2 1.2-2.5a3 3 0 014.7 1.7c.4 1.5-.3 3-1.6 3.6-.3.1-.5.5-.5 1v.3c0 .5-.4.8-.8.8z"/><path d="M21.3 23H2.6A2.8 2.8 0 010 20.2V3.9C0 2.1 1.2 1 2.8 1h18.4C22.9 1 24 2.2 24 3.8v16.4c0 1.6-1.2 2.8-2.8 2.8zM2.6 2.5c-.6 0-1.2.6-1.2 1.3v16.4c0 .7.6 1.3 1.3 1.3h18.4c.7 0 1.3-.6 1.3-1.3V3.9c0-.7-.6-1.3-1.3-1.3z"/><path d="M23.3 6H.6a.8.8 0 010-1.5h22.6a.8.8 0 010 1.5z"/><circle cx="12" cy="17.8" r=".8"/></svg>