<svg xmlns="http://www.w3.org/2000/svg" viewBox="0 0 512 512"><defs><linearGradient id="a" gradientUnits="userSpaceOnUse" x1="50%" y1="0%" x2="50%" y2="100%"><stop offset="0%" stop-color="#f2b745"/><stop offset="100%" stop-color="#df4e75"/></linearGradient></defs><circle cx="256" cy="256" r="256" fill="url(#a)"/><g fill="#fff"><path d="M112 369c-3-1-6-3-7-5-4-4-5-12-3-18a221 221 0 0129-34 1169 1169 0 0151-57l9-11-37-1h-37v-30h56c49 0 57 0 62 2 7 2 11 6 12 12 1 8-2 15-10 23a1518 1518 0 00-52 57l-9 10-9 10-7 9c-2 2-2 2 33 2h36v33h-57c-53 0-57 0-61-2zM279 298c-6-3-9-5-11-10-3-6-2-12 2-18l19-22a4705 4705 0 0066-75c1-2-1-2-36-2h-37v-30h56l61 2c9 4 13 12 10 22-2 5-5 9-62 72l-27 30h73v32h-55l-59-1z"/></g></svg>