<svg xmlns="http://www.w3.org/2000/svg" viewBox="0 0 339.2 339.2">
  <path d="M171 303c-2-2-5-2-7 0-3 4-2 8-2 13 0 6 0 12-2 18-1 5 6 7 8 3l4-16c1-6 2-13-1-18zM171 277l-2-10v-5l-2-5c-1-3-5-3-7 0-2 4-2 7 0 11l4 12c2 4 9 2 7-3zM167 202c-1-2-4-2-6 0-3 3-2 6-2 9l1 11c0 5 7 5 7 0l1-9c1-4 2-7-1-11zM168 175c-3-7-2-14-3-21-2-3-7-3-8 0-3 8 0 16 4 23 2 4 8 1 7-2zM163 96h-5c-3 4-2 9-2 14l1 13c0 4 6 4 7 0l1-12c1-5 2-10-2-15zM157 44c-3 0-6 3-5 6 2 5 2 11 2 16 1 3 6 3 7 0 1-5 0-11 2-16 0-3-2-6-6-6z"/>
  <path d="M215 41c-14-15-29-30-48-40-2-1-5-1-7 1-13 15-23 32-36 47-5 5 3 12 7 7 12-13 21-29 34-42 16 9 27 24 41 36 6 6 15-3 9-9z"/>
</svg>
